<svg id="ltLoginIcons" xmlns="http://www.w3.org/2000/svg" xmlns:xlink="http://www.w3.org/1999/xlink"><defs><symbol viewBox="0 0 28 28" id="lt_login_svg_checkBox"><g><g><rect width="28" height="28" rx="10"></rect></g><path d="M22.965 8.653a51.323 51.323 0 0 0-3.984 3.355q-1.9 1.776-3.673 3.689c-.852.948-1.678 1.9-2.443 2.924q-.524-.482-1.073-.934c-.736-.618-1.507-1.193-2.3-1.739s-1.6-1.066-2.428-1.543a25.848 25.848 0 0 0-2.557-1.322c.689.653 1.365 1.3 2.027 1.965s1.322 1.314 1.949 2 1.26 1.349 1.871 2.029c.31.337.609.682.9 1.028s.587.693.893 1.026l.985 1.089.879-1.222c.95-1.321 1.912-2.721 2.906-4.066q1.478-2.041 3.115-3.98a51.2 51.2 0 0 1 7.266-7.165 41.377 41.377 0 0 0-4.333 2.866z" fill="#fff" stroke="#fff" stroke-width="2"></path></g></symbol><symbol viewBox="0 0 50 50" id="lt_login_svg_close"><defs><style>#lt_login_svg_close .a,#lt_login_svg_close .b,#lt_login_svg_close .d{fill:none;}#lt_login_svg_close .a,#lt_login_svg_close .b{stroke-width:3px;}#lt_login_svg_close .b{stroke-linecap:round;}#lt_login_svg_close .c{stroke:none;}</style></defs><g transform="translate(-627.915 -472)"><g class="a" transform="translate(627.915 472)"><circle class="c" cx="25" cy="25" r="25"></circle><circle class="d" cx="25" cy="25" r="23.5"></circle></g><line class="b" x2="28.113" transform="translate(642.873 486.866) rotate(45)"></line><line class="b" x2="28.113" transform="translate(662.751 486.866) rotate(135)"></line></g></symbol><symbol viewBox="0 0 26 26" id="lt_login_svg_eyeClose"><defs><style>#lt_login_svg_eyeClose .b{fill:none;}</style></defs><g transform="translate(-565 -704)"><path class="a" d="M165.5,127.576a.246.246,0,0,0-.343.058l-.013.018a11.864,11.864,0,0,1-2.183,2.243,18.651,18.651,0,0,1-2.531,1.778,11.119,11.119,0,0,1-5.446,1.751,10.906,10.906,0,0,1-5.425-1.768,19.7,19.7,0,0,1-2.531-1.79,13.673,13.673,0,0,1-2.23-2.223l-.012-.016a.246.246,0,0,0-.435.2,8.76,8.76,0,0,0,1.549,3.093,14.5,14.5,0,0,0,2.393,2.515,13.29,13.29,0,0,0,1.43,1.023L148.24,136.7a.849.849,0,0,0,1.346,1.028l1.984-2.262c.017-.019.033-.043.049-.065a9.752,9.752,0,0,0,2.308.6v2.5a1.049,1.049,0,0,0,2.1,0V136a9.928,9.928,0,0,0,2.318-.591c.014.018.025.039.04.057l1.983,2.262a.849.849,0,0,0,1.346-1.028l-1.47-2.219a13.43,13.43,0,0,0,1.448-1.023,14.059,14.059,0,0,0,2.4-2.513,8.124,8.124,0,0,0,1.508-3.126A.247.247,0,0,0,165.5,127.576Z" transform="translate(422.939 584.532)"></path><rect class="b" width="26" height="26" transform="translate(565 704)"></rect></g></symbol><symbol viewBox="0 0 26 26" id="lt_login_svg_eyeOpen"><defs><style>#lt_login_svg_eyeOpen .b{fill:none;}</style></defs><g transform="translate(-568.173 -878)"><g transform="translate(570.115 882.446)"><path class="a" d="M65.921,154.92c-6.06,0-10.972,6.149-10.972,8.641s4.912,8.64,10.972,8.64,10.972-6.2,10.972-8.64S71.98,154.92,65.921,154.92Zm0,14.047a5.407,5.407,0,1,1,5.407-5.406A5.406,5.406,0,0,1,65.921,168.967Z" transform="translate(-54.949 -154.92)"></path><path class="a" d="M91.189,179.354a1.67,1.67,0,0,1,.032-.322,2.45,2.45,0,1,0,1.623,2.3,2.475,2.475,0,0,0-.025-.33A1.654,1.654,0,0,1,91.189,179.354Z" transform="translate(-79.421 -172.697)"></path></g><rect class="b" width="26" height="26" transform="translate(568.173 878)"></rect></g></symbol><symbol viewBox="0 0 36 36" id="lt_login_svg_key"><defs><style>#lt_login_svg_key .b{fill:none;}</style></defs><g transform="translate(5297 5362.986)"><g transform="translate(-5292.691 -5359.255)"><path class="a" d="M2.936,25.6A10.028,10.028,0,0,1,15.943,10.413L18.258,8.1,16.649,6.49a1.543,1.543,0,1,1,2.182-2.182L20.44,5.917l2.04-2.04L21.236,2.633A1.543,1.543,0,1,1,23.417.452L24.661,1.7l.087-.087A1.543,1.543,0,0,1,26.929,3.79l-8.8,8.8a10.029,10.029,0,0,1-8.1,15.944A9.963,9.963,0,0,1,2.936,25.6ZM5.4,20.825a2.314,2.314,0,1,0,2.314-2.314A2.316,2.316,0,0,0,5.4,20.825Z" transform="translate(0 0)"></path></g><rect class="b" width="36" height="36" transform="translate(-5297 -5362.986)"></rect></g></symbol><symbol viewBox="0 0 36 36" id="lt_login_svg_phone"><defs><style>#lt_login_svg_phone .b{fill:#fff;}#lt_login_svg_phone .c{fill:none;}</style></defs><g transform="translate(-713 -239.056)"><g transform="translate(719.514 239.196)"><path class="a" d="M3.2,35.353a3.478,3.478,0,0,1-3.2-3.7V3.7A3.478,3.478,0,0,1,3.2,0H19.521a3.478,3.478,0,0,1,3.2,3.7V31.654a3.478,3.478,0,0,1-3.2,3.7ZM2.308,4.146v23.7h18.1V4.137c-.607-.007-2.064-.016-5.441-.016C10.24,4.121,4,4.137,2.308,4.146Z"></path><circle class="b" cx="1.783" cy="1.783" r="1.783" transform="matrix(0.973, -0.23, 0.23, 0.973, 9.212, 29.779)"></circle><path class="b" d="M2.233,0A2.233,2.233,0,1,1,0,2.233,2.236,2.236,0,0,1,2.233,0Zm0,3.565A1.332,1.332,0,1,0,.9,2.233,1.333,1.333,0,0,0,2.233,3.565Z" transform="matrix(0.973, -0.23, 0.23, 0.973, 8.67, 29.443)"></path></g><rect class="c" width="36" height="36" transform="translate(713 239.056)"></rect></g></symbol><symbol viewBox="0 0 20 20" id="lt_login_svg_select"><defs><style>#lt_login_svg_select .b{fill:#fff;stroke:#fff;}</style></defs><circle class="a" cx="10" cy="10" r="10"></circle><path class="b" d="M2215.67,137.638a35.832,35.832,0,0,0-2.787,2.347q-1.331,1.243-2.569,2.58c-.6.663-1.174,1.33-1.709,2.045q-.367-.337-.751-.653c-.515-.433-1.055-.834-1.606-1.217s-1.116-.745-1.7-1.08a18.073,18.073,0,0,0-1.789-.924c.482.457.954.913,1.418,1.374s.925.919,1.363,1.4.881.943,1.309,1.419c.217.235.426.477.632.719s.41.484.625.718h0l.689.762.615-.855c.665-.924,1.337-1.9,2.033-2.844s1.417-1.881,2.179-2.784a35.792,35.792,0,0,1,5.083-5.012A28.958,28.958,0,0,0,2215.67,137.638Z" transform="translate(-2199.606 -131.585)"></path></symbol><symbol viewBox="0 0 120 120" id="lt_login_svg_succeed"><defs><style>#lt_login_svg_succeed .b{fill:none;stroke:#fff;stroke-linecap:round;stroke-linejoin:round;stroke-width:10px;}</style></defs><g transform="translate(-315 -618)"><circle class="a" cx="60" cy="60" r="60" transform="translate(315 618)"></circle><path class="b" d="M342.805,675.057,362.059,696l30.718-37.775" transform="translate(7.209 3.885)"></path></g></symbol><symbol viewBox="0 0 44 44" id="lt_login_svg_tri"><defs><style>#lt_login_svg_tri .b{fill:none;}</style></defs><g transform="translate(-575 -729)"><path class="a" d="M9.526,1.608a2,2,0,0,1,2.949,0l6.454,7.04A2,2,0,0,1,17.454,12H4.546A2,2,0,0,1,3.072,8.649Z" transform="translate(608 758) rotate(180)"></path><rect class="b" width="44" height="44" transform="translate(575 729)"></rect></g></symbol><symbol viewBox="0 0 36 36" id="lt_login_svg_user"><defs><style>#lt_login_svg_user .b{stroke:rgba(0,0,0,0);stroke-miterlimit:10;}#lt_login_svg_user .c{fill:none;}</style></defs><g transform="translate(4216 5523)"><rect class="a" width="28.749" height="10.992" rx="5" transform="translate(-4212.375 -5499.993)"></rect><path class="b" d="M9,18.749a9.042,9.042,0,0,1-6.366-2.581A8.663,8.663,0,0,1,0,9.935,8.92,8.92,0,0,1,9,1.121c1.212,0,2.148.05,2.973.093.639.034,1.191.063,1.747.063A14.277,14.277,0,0,0,17.877.626a9.031,9.031,0,0,0,1.241-.49l.232-.1A.357.357,0,0,1,19.5,0a.375.375,0,0,1,.37.367c.084,2.122-.239,4.789-2.256,5.448-.09.029-.3.115-.507.2s-.4.161-.481.189a15.38,15.38,0,0,1-3.995.8h4.865a8.675,8.675,0,0,1-2.124,9.167A9.042,9.042,0,0,1,9,18.749ZM5.051,12.431c0,1.713,1.7,3.106,3.786,3.106s3.785-1.394,3.785-3.106a3.981,3.981,0,0,0-.538-.013c-.283,0-.668,0-1.114,0-.634,0-1.418.008-2.235.008H5.051Z" transform="translate(-4207.258 -5520.999)"></path><rect class="c" width="36" height="36" transform="translate(-4216 -5523)"></rect></g></symbol><symbol viewBox="0 0 32 32" id="lt_login_svg_warn"><defs><style>#lt_login_svg_warn .a,#lt_login_svg_warn .d{fill:none;}#lt_login_svg_warn .a{stroke-width:3px;}#lt_login_svg_warn .c{stroke:none;}</style></defs><g transform="translate(-123 -647)"><g class="a" transform="translate(123 647)"><circle class="c" cx="16" cy="16" r="16"></circle><circle class="d" cx="16" cy="16" r="14.5"></circle></g><path class="b" d="M1.9,0c1.052,0,1.9.309,1.9,3.888S2.956,12.96,1.9,12.96,0,7.467,0,3.888.852,0,1.9,0Z" transform="translate(137 653.48)"></path><circle class="b" cx="2" cy="2" r="2" transform="translate(137 668.52)"></circle></g></symbol></defs></svg>